<?xml version="1.0" encoding="UTF-8"?>
<svg width="100px" height="100px" viewBox="0 0 100 100" version="1.1" xmlns="http://www.w3.org/2000/svg" xmlns:xlink="http://www.w3.org/1999/xlink">
    <!-- Generator: Sketch 50.2 (55047) - http://www.bohemiancoding.com/sketch -->
    <title>Artboard</title>
    <desc>Created with Sketch.</desc>
    <defs></defs>
    <g id="Artboard" stroke="none" stroke-width="1" fill="none" fill-rule="evenodd">
        <g id="webpack" transform="translate(0.000000, -2.000000)" fill-rule="nonzero">
            <polygon id="Shape" fill="#FFFFFF" points="49.5 0 99 25.5 99 76.5 49.5 102 0 76.5 0 25.5"></polygon>
            <path d="M90.2205259,74.7625499 L51.2120441,94.8837209 L51.2120441,79.2121789 L75.5165394,67.0203657 L90.2205259,74.7625499 Z M92.8888889,72.5590052 L92.8888889,30.478958 L78.6140797,37.991429 L78.6140797,65.0380263 L92.8888889,72.5590052 Z M8.77947413,74.7625499 L47.7879559,94.8837209 L47.7879559,79.2121789 L23.4834606,67.0203657 L8.77947413,74.7625499 Z M6.11111111,72.5590052 L6.11111111,30.478958 L20.3859203,37.991429 L20.3859203,65.0380263 L6.11111111,72.5590052 Z M7.78117048,27.7564316 L47.7879559,7.11627907 L47.7879559,22.2688396 L22.158609,35.1242685 L21.9626802,35.2263632 L7.78117048,27.7564316 Z M91.2188295,27.7564316 L51.2120441,7.11627907 L51.2120441,22.2688396 L76.841391,35.1242685 L77.0373198,35.2263632 L91.2188295,27.7564316 Z" id="Shape" fill="#565656"></path>
            <path d="M48.4006214,75.9069767 L24.4444444,63.8077491 L24.4444444,39.8319264 L48.4006214,52.5391124 L48.4006214,75.9069767 Z M51.8216008,75.9069767 L75.7777778,63.8077491 L75.7777778,39.8319264 L51.8216008,52.5391124 L51.8216008,75.9069767 Z M26.0663802,37.0575812 L50.1157718,24.9069767 L74.1651635,37.0575812 L50.1157718,49.816144 L26.0663802,37.0575812 Z" id="Shape" fill="#000000"></path>
        </g>
    </g>
</svg>